/* XPM */
static char * out_collide_xpm[] = {
"33 33 7 1",
" 	c #000000",
".	c #AA0000",
"+	c #FF5555",
"@	c #55FF55",
"#	c #00AA00",
"$	c #FFFF55",
"%	c #AA5500",
"                                 ",
"                                 ",
"                                 ",
"                                 ",
"                                 ",
"              .                  ",
"              ..     .           ",
"              ..    ..           ",
"              .+.  .+.           ",
"       @@@@   .+. .++.@@@@       ",
"     @@####@@ .++.++.@####@@     ",
"    @##@#####@.+$+$+.#@#####@    ",
"   @##@#####...+$$$+.@#######@   ",
"  @##@#@#...++++$$$++..#####%#@  ",
"  @###@###.+++$$$$$$$++..#####@  ",
" @#%#######..++$$$$$$$$++..##%#@ ",
" @%#%########.+$$$$$+++..###%#%@ ",
" @#%#######..+$$$$$$+..######%#@ ",
" @%#%#####.+++$$$$++++.#####%#%@ ",
"  @%#%##..+++++$$+.+++.####%#%@  ",
"  @#%#%.+++...+$$+...++.##%#%#@  ",
"   @#......%#.+++.@##.+.#%#%#@   ",
"    ...#%#%#%@.++. @%#...#%#@    ",
"     @@%#%#@@ .+.   @@#%.%@@     ",
"       @@@@   .+.     @@@@       ",
"               .                 ",
"               .                 ",
"                                 ",
"                                 ",
"                                 ",
"                                 ",
"                                 ",
"                                 "};
