/* XPM */
static char * Untitled_xpm[] = {
"33 33 5 1",
" 	c #000000",
".	c #00AA00",
"+	c #55FF55",
"@	c #AA5500",
"#	c #AA0000",
"                                 ",
"                 .   .           ",
"        .     . .+. . . .        ",
"       .+.   .   . .+. .         ",
"        . . ... . .@. .+.        ",
"       . .+. . @ .+@ . .         ",
"    . .+. .@.+@@...@.@@ . . .    ",
"   .+. . . @#.@.+. @@.+...+...   ",
"  .+.+.@.+..@@@ . @#... . . . .  ",
"   . . @#. .@#...@#. . .+. . .   ",
"  .   .+@ .+#@.+.@...+@ . @   .  ",
"     . .@# . @.. @ . .@.#@ .     ",
"    .+...@#+.@# #@.+. @@@.. .    ",
"   . .@@ .@. .@.@@..#@@.+. .+.   ",
"  .+#@. @@@@.+@@#@@@@.. . @..    ",
"   .@. . @ #@. #@#@#..+. @+. .   ",
"  . ...@@+. #@.@#@@+..#@@ . ...  ",
" .   .@. . @@ @##@#.#@@#+@ .+. . ",
"  . . @+. @+@@@##@@@@@. . @@@ .  ",
"     . ..@ . #@##@@.+.@@ . .+.   ",
"    .+. @ .+. ##@@# . .+.   . .  ",
"   . . .+. .  ##@##    . .   .   ",
"    .   . . . @#@##   . .   . .  ",
"   .   .   .  @#@#@    .     .   ",
"        .     @#@#@              ",
"              @#@#@              ",
"              @#@#@              ",
"             @@#@@#@             ",
"            @@@@@@#@@@           ",
"       ###@@#@#@#@@#@@@          ",
"     ## # # #@@# #@# # #####     ",
"         # #  # # # #            ",
"                                 "};
