/* XPM */
static char * out_tetrahedralize_xpm[] = {
"33 33 5 1",
" 	c #000000",
".	c #FF5555",
"+	c #AA5500",
"@	c #55FF55",
"#	c #00AA00",
"                                 ",
"                                 ",
"               ...               ",
"               .+.               ",
"               ...               ",
"               @@@               ",
"              @##@@              ",
"              @##@#@             ",
"             @# #@ #@            ",
"            @# +#@+ #@           ",
"            @#+ +#@+#@           ",
"           @#+ + #@ +#@          ",
"          @#+ + +#@+ +#@         ",
"          @# + + #@ + +#@        ",
"         @# + + + #@ + #@        ",
"         @#+ + + +#@+ + #@       ",
"        @#+ + + + #@ + + #@      ",
"       @#+ + + + +#@+ + + #@     ",
"       @# + + + + #@ + + + #@    ",
"      @# + + + + + #@ + + + ...  ",
"     @# + + + + + +#@+ + ###.+.  ",
"     @#+ + + + +####@####@@@...  ",
"    @#+ ########@@@#@@@@@+ #@    ",
"  ...###@@@@@@@@+ + #@+ + #@     ",
"  .+.@@@#+ + + + + +#@ + #@      ",
"  ...@@@@#### + + + #@+ #@       ",
"         @@@@####+ +#@ #@        ",
"             @@@@#####@#@        ",
"                 @@@@...         ",
"                     .+.         ",
"                     ...         ",
"                                 ",
"                                 "};
