/* XPM */
static char * out_curlNoiseField_xpm[] = {
"33 33 5 1",
" 	c #000000",
".	c #55FF55",
"+	c #00AA00",
"@	c #AA0000",
"#	c #AA5500",
"                                 ",
"                                 ",
"                                 ",
"       ...                       ",
"      .++++.                     ",
"     .+    +.           ....     ",
"     .      +.         .+  +.    ",
"     .   +   +        .+    +.   ",
"     .+  +.  +.       .+    +.   ",
"      .++.   +.        .++  +.   ",
"       ..     +         .   +    ",
"                           +.    ",
"               @@@        +.     ",
"             @@###@@   +++.      ",
"             @###@#@  +..        ",
"            @#####@#@            ",
"            @####@#@@            ",
"            @#@#@#@#@            ",
"             @#@#@#@             ",
"        ..+  @@#@#@@             ",
"      .+++     @@@               ",
"     .+                          ",
"    .+            +     ..       ",
"    +   .         .+   .++.      ",
"   .+  ++.        .+  .+  +.     ",
"   .+    +.        +   +   .     ",
"   .+    +.        .+      .     ",
"    .+  +.          .+    +.     ",
"     ....            .++++.      ",
"                       ...       ",
"                                 ",
"                                 ",
"                                 "};
